<svg xmlns="http://www.w3.org/2000/svg" width="760" height="420" viewBox="0 0 760 420" role="img" aria-label="Synthetic transit posterior corner plot">
  <rect width="760" height="420" fill="#fbfcfe"/><text x="42" y="38" font-family="Arial" font-size="20" fill="#152b43">Transit posterior diagnostics</text><text x="42" y="61" font-family="Arial" font-size="12" fill="#5a6b7b">Synthetic illustration, not candidate data</text>
  <g transform="translate(105 86)" stroke="#d6e0e8" fill="none"><rect width="145" height="86"/><rect x="150" width="145" height="86"/><rect x="300" width="145" height="86"/><rect y="91" width="145" height="86"/><rect x="150" y="91" width="145" height="86"/><rect x="300" y="91" width="145" height="86"/><rect y="182" width="145" height="86"/><rect x="150" y="182" width="145" height="86"/><rect x="300" y="182" width="145" height="86"/></g>
  <g fill="none" stroke="#236c98" stroke-width="2"><path d="M118 144c25-57 81-57 112 0"/><path d="M270 144c17-61 91-61 112 0"/><path d="M421 144c27-56 82-56 112 0"/><ellipse cx="177" cy="218" rx="45" ry="24" transform="rotate(-25 177 218)"/><ellipse cx="330" cy="219" rx="49" ry="20" transform="rotate(20 330 219)"/><ellipse cx="482" cy="219" rx="35" ry="29"/><ellipse cx="177" cy="310" rx="38" ry="28" transform="rotate(34 177 310)"/><ellipse cx="330" cy="310" rx="47" ry="19" transform="rotate(-20 330 310)"/><ellipse cx="482" cy="310" rx="43" ry="25" transform="rotate(18 482 310)"/></g>
  <g font-family="Arial" font-size="13" fill="#415364"><text x="152" y="374">R_p / R_star</text><text x="321" y="374">a / R_star</text><text x="475" y="374">inclination</text><text x="602" y="164">q1, q2 map to</text><text x="602" y="184">physical u1, u2</text></g>
</svg>
