<svg xmlns="http://www.w3.org/2000/svg" width="760" height="420" viewBox="0 0 760 420" role="img" aria-label="Synthetic stellar SED fit">
  <rect width="760" height="420" fill="#fbfcfe"/><text x="42" y="38" font-family="Arial" font-size="20" fill="#152b43">Broadband stellar SED fit</text><text x="42" y="61" font-family="Arial" font-size="12" fill="#5a6b7b">Synthetic illustration, not candidate data</text>
  <g stroke="#d9e1e8"><path d="M86 95V340H700"/><path d="M86 145H700M86 195H700M86 245H700M86 295H700"/></g><path d="M105 305C150 265 181 202 232 160S345 103 428 128 558 234 684 305" fill="none" stroke="#1e729e" stroke-width="4"/>
  <g stroke="#dc5b4b" stroke-width="2" fill="#fff"><path d="M140 267v32M222 167v32M312 113v32M411 125v32M515 185v32M625 265v32"/><circle cx="140" cy="283" r="5"/><circle cx="222" cy="183" r="5"/><circle cx="312" cy="129" r="5"/><circle cx="411" cy="141" r="5"/><circle cx="515" cy="201" r="5"/><circle cx="625" cy="281" r="5"/></g><text x="389" y="387" font-family="Arial" font-size="13" fill="#415364" text-anchor="middle">effective wavelength</text><text x="32" y="240" font-family="Arial" font-size="13" fill="#415364" transform="rotate(-90 32 240)">relative flux density</text><text x="516" y="115" font-family="Arial" font-size="12" fill="#1e729e">model atmosphere</text><text x="516" y="134" font-family="Arial" font-size="12" fill="#dc5b4b">catalog photometry</text>
</svg>
